<mxfile host="app.diagrams.net" modified="2023-11-09T14:19:14.282Z" agent="Mozilla/5.0 (X11; Ubuntu; Linux x86_64; rv:109.0) Gecko/20100101 Firefox/119.0" etag="srpcoJSRv5QSkQcBTLFE" version="22.1.0" type="device">
  <diagram name="Page-1" id="fIDpOyRQobxb_MCxYIHS">
    <mxGraphModel dx="1434" dy="911" grid="1" gridSize="5" guides="1" tooltips="1" connect="1" arrows="1" fold="1" page="1" pageScale="1" pageWidth="850" pageHeight="1100" math="0" shadow="0">
      <root>
        <mxCell id="0" />
        <mxCell id="1" parent="0" />
        <mxCell id="QJhU5oRQL1Jb571ihN6a-77" value="&lt;div&gt;transmitting&lt;/div&gt;&lt;div&gt;OTAARegReq&lt;/div&gt;" style="rounded=1;whiteSpace=wrap;html=1;fillColor=#f5f5f5;fontColor=#333333;strokeColor=#666666;" parent="1" vertex="1">
          <mxGeometry x="705" y="975" width="120" height="60" as="geometry" />
        </mxCell>
        <mxCell id="QJhU5oRQL1Jb571ihN6a-79" style="edgeStyle=orthogonalEdgeStyle;rounded=0;orthogonalLoop=1;jettySize=auto;html=1;exitX=0.25;exitY=1;exitDx=0;exitDy=0;entryX=0.5;entryY=1;entryDx=0;entryDy=0;" parent="1" source="QJhU5oRQL1Jb571ihN6a-80" target="QJhU5oRQL1Jb571ihN6a-86" edge="1">
          <mxGeometry relative="1" as="geometry">
            <Array as="points">
              <mxPoint x="1235" y="1140" />
              <mxPoint x="910" y="1140" />
            </Array>
          </mxGeometry>
        </mxCell>
        <mxCell id="QJhU5oRQL1Jb571ihN6a-97" style="edgeStyle=orthogonalEdgeStyle;rounded=0;orthogonalLoop=1;jettySize=auto;html=1;exitX=0.5;exitY=0;exitDx=0;exitDy=0;entryX=0.5;entryY=1;entryDx=0;entryDy=0;" parent="1" source="QJhU5oRQL1Jb571ihN6a-80" target="QJhU5oRQL1Jb571ihN6a-94" edge="1">
          <mxGeometry relative="1" as="geometry" />
        </mxCell>
        <mxCell id="H4dIKK-zUDVW9IUX0KOT-1" style="edgeStyle=orthogonalEdgeStyle;rounded=0;orthogonalLoop=1;jettySize=auto;html=1;exitX=0.5;exitY=1;exitDx=0;exitDy=0;entryX=0.5;entryY=0;entryDx=0;entryDy=0;" edge="1" parent="1" source="QJhU5oRQL1Jb571ihN6a-80" target="QJhU5oRQL1Jb571ihN6a-95">
          <mxGeometry relative="1" as="geometry" />
        </mxCell>
        <mxCell id="QJhU5oRQL1Jb571ihN6a-80" value="&lt;div&gt;waitForRequest&lt;br&gt;ConnectionAnswer&lt;br&gt;&lt;/div&gt;" style="rounded=1;whiteSpace=wrap;html=1;fillColor=#f5f5f5;fontColor=#333333;strokeColor=#666666;" parent="1" vertex="1">
          <mxGeometry x="1205" y="973.75" width="120" height="60" as="geometry" />
        </mxCell>
        <mxCell id="QJhU5oRQL1Jb571ihN6a-81" value="" style="edgeStyle=orthogonalEdgeStyle;rounded=0;orthogonalLoop=1;jettySize=auto;html=1;" parent="1" source="QJhU5oRQL1Jb571ihN6a-82" target="QJhU5oRQL1Jb571ihN6a-80" edge="1">
          <mxGeometry relative="1" as="geometry" />
        </mxCell>
        <mxCell id="QJhU5oRQL1Jb571ihN6a-82" value="&amp;nbsp;RX: wait for parent connection confirmation" style="rounded=0;whiteSpace=wrap;html=1;" parent="1" vertex="1">
          <mxGeometry x="1055" y="972.5" width="120" height="62.5" as="geometry" />
        </mxCell>
        <mxCell id="QJhU5oRQL1Jb571ihN6a-84" value="If timeout or&lt;br&gt;&lt;div&gt;invalid response &amp;gt;&amp;nbsp;&lt;/div&gt;&lt;div&gt;3xNetworkDepth&lt;/div&gt;" style="text;html=1;align=left;verticalAlign=middle;resizable=0;points=[];autosize=1;" parent="1" vertex="1">
          <mxGeometry x="1270" y="1105" width="120" height="60" as="geometry" />
        </mxCell>
        <mxCell id="QJhU5oRQL1Jb571ihN6a-85" style="edgeStyle=orthogonalEdgeStyle;rounded=0;orthogonalLoop=1;jettySize=auto;html=1;exitX=1;exitY=0.5;exitDx=0;exitDy=0;entryX=0;entryY=0.5;entryDx=0;entryDy=0;" parent="1" source="QJhU5oRQL1Jb571ihN6a-86" target="QJhU5oRQL1Jb571ihN6a-82" edge="1">
          <mxGeometry relative="1" as="geometry" />
        </mxCell>
        <mxCell id="QJhU5oRQL1Jb571ihN6a-86" value="&lt;div&gt;waitForPotential&lt;/div&gt;&lt;div&gt;ParentWindow&lt;/div&gt;" style="rounded=1;whiteSpace=wrap;html=1;fillColor=#f5f5f5;fontColor=#333333;strokeColor=#666666;" parent="1" vertex="1">
          <mxGeometry x="850" y="973.75" width="120" height="60" as="geometry" />
        </mxCell>
        <mxCell id="QJhU5oRQL1Jb571ihN6a-87" style="edgeStyle=orthogonalEdgeStyle;rounded=0;orthogonalLoop=1;jettySize=auto;html=1;exitX=1;exitY=0.5;exitDx=0;exitDy=0;" parent="1" target="QJhU5oRQL1Jb571ihN6a-86" edge="1">
          <mxGeometry relative="1" as="geometry">
            <mxPoint x="825" y="1003.7499999999998" as="sourcePoint" />
          </mxGeometry>
        </mxCell>
        <mxCell id="QJhU5oRQL1Jb571ihN6a-90" value="&lt;div&gt;If event == &lt;br&gt;&lt;/div&gt;&lt;div&gt;potentialParent&lt;/div&gt;&lt;div&gt;&amp;nbsp;window&lt;br&gt;&lt;/div&gt;" style="text;html=1;align=left;verticalAlign=middle;resizable=0;points=[];autosize=1;" parent="1" vertex="1">
          <mxGeometry x="970" y="953" width="100" height="60" as="geometry" />
        </mxCell>
        <mxCell id="QJhU5oRQL1Jb571ihN6a-91" value="If timeout or&lt;br&gt;invalid response" style="text;html=1;align=left;verticalAlign=middle;resizable=0;points=[];autosize=1;" parent="1" vertex="1">
          <mxGeometry x="1145" y="1100" width="105" height="45" as="geometry" />
        </mxCell>
        <mxCell id="QJhU5oRQL1Jb571ihN6a-92" value="QUEUE the potentialParent node time slot" style="rounded=0;whiteSpace=wrap;html=1;" parent="1" vertex="1">
          <mxGeometry x="1015" y="1110" width="120" height="62.5" as="geometry" />
        </mxCell>
        <mxCell id="QJhU5oRQL1Jb571ihN6a-94" value="&lt;div&gt;connectedIdle&lt;/div&gt;" style="rounded=1;whiteSpace=wrap;html=1;fillColor=#f5f5f5;fontColor=#333333;strokeColor=#666666;" parent="1" vertex="1">
          <mxGeometry x="1205" y="625" width="120" height="60" as="geometry" />
        </mxCell>
        <mxCell id="QJhU5oRQL1Jb571ihN6a-95" value="&lt;div&gt;idleState&lt;/div&gt;" style="rounded=1;whiteSpace=wrap;html=1;fillColor=#f5f5f5;fontColor=#333333;strokeColor=#666666;" parent="1" vertex="1">
          <mxGeometry x="1205" y="1180" width="120" height="60" as="geometry" />
        </mxCell>
        <mxCell id="QJhU5oRQL1Jb571ihN6a-98" value="If ACK received" style="text;html=1;align=left;verticalAlign=middle;resizable=0;points=[];autosize=1;" parent="1" vertex="1">
          <mxGeometry x="1175" y="923" width="105" height="30" as="geometry" />
        </mxCell>
        <mxCell id="QJhU5oRQL1Jb571ihN6a-99" value="&lt;div&gt;&lt;br&gt;&lt;/div&gt;&lt;div&gt;1. Add a parent to the list&lt;/div&gt;&lt;div&gt;&amp;nbsp;&amp;nbsp;&amp;nbsp; 2. Synchronize GPS time to the parent.&lt;/div&gt;&lt;div&gt;&amp;nbsp;&amp;nbsp;&amp;nbsp;&amp;nbsp; 3.Configure my address and &lt;span style=&quot;white-space: pre;&quot;&gt;&#x9;&lt;/span&gt;other settings received from the packet.&lt;/div&gt;&lt;div&gt;&amp;nbsp;&amp;nbsp;&amp;nbsp; 4.Encryption key derivation.&lt;/div&gt;&lt;div&gt;&amp;nbsp;&amp;nbsp;&amp;nbsp; 5.Push new events - parent &lt;span style=&quot;white-space: pre;&quot;&gt;&#x9;&lt;/span&gt;beacon event, my beacon event&lt;br&gt;&lt;/div&gt;" style="rounded=0;whiteSpace=wrap;html=1;rotation=0;" parent="1" vertex="1">
          <mxGeometry x="1175" y="730" width="170" height="175" as="geometry" />
        </mxCell>
      </root>
    </mxGraphModel>
  </diagram>
</mxfile>
